<svg width="15" height="15" viewBox="0 0 15 15" fill="none" xmlns="http://www.w3.org/2000/svg">
<path d="M11.825 3.13125C11.7 2.7625 11.35 2.5 10.9375 2.5H4.0625C3.65 2.5 3.30625 2.7625 3.175 3.13125L1.875 6.875V11.875C1.875 12.2188 2.15625 12.5 2.5 12.5H3.125C3.46875 12.5 3.75 12.2188 3.75 11.875V11.25H11.25V11.875C11.25 12.2188 11.5312 12.5 11.875 12.5H12.5C12.8438 12.5 13.125 12.2188 13.125 11.875V6.875L11.825 3.13125ZM4.0625 9.375C3.54375 9.375 3.125 8.95625 3.125 8.4375C3.125 7.91875 3.54375 7.5 4.0625 7.5C4.58125 7.5 5 7.91875 5 8.4375C5 8.95625 4.58125 9.375 4.0625 9.375ZM10.9375 9.375C10.4187 9.375 10 8.95625 10 8.4375C10 7.91875 10.4187 7.5 10.9375 7.5C11.4563 7.5 11.875 7.91875 11.875 8.4375C11.875 8.95625 11.4563 9.375 10.9375 9.375ZM3.125 6.25L4.0625 3.4375H10.9375L11.875 6.25H3.125Z" fill="black"/>
</svg>
