<svg width="12" height="12" viewBox="0 0 12 12" fill="none" xmlns="http://www.w3.org/2000/svg">
<path d="M10.7812 0H3.28125C3.15693 0 3.0377 0.0493861 2.94979 0.137294C2.86189 0.225201 2.8125 0.34443 2.8125 0.46875V2.8125H0.46875C0.34443 2.8125 0.225201 2.86189 0.137294 2.94979C0.0493861 3.0377 0 3.15693 0 3.28125V10.7812C0 10.9056 0.0493861 11.0248 0.137294 11.1127C0.225201 11.2006 0.34443 11.25 0.46875 11.25H7.96875C8.09307 11.25 8.2123 11.2006 8.30021 11.1127C8.38811 11.0248 8.4375 10.9056 8.4375 10.7812V8.4375H10.7812C10.9056 8.4375 11.0248 8.38811 11.1127 8.30021C11.2006 8.2123 11.25 8.09307 11.25 7.96875V0.46875C11.25 0.34443 11.2006 0.225201 11.1127 0.137294C11.0248 0.0493861 10.9056 0 10.7812 0ZM7.5 10.3125H0.9375V3.75H7.5V10.3125ZM10.3125 7.5H8.4375V3.28125C8.4375 3.15693 8.38811 3.0377 8.30021 2.94979C8.2123 2.86189 8.09307 2.8125 7.96875 2.8125H3.75V0.9375H10.3125V7.5Z" fill="#FB923C"/>
</svg>
